<svg transform="scale(1)" id="xguCZkv5Z4" xmlns="http://www.w3.org/2000/svg" viewBox="0 0 500 500" class="pbimage_pbimage__wrapper__image__0LEis false"><title>Finance App 1</title><defs><style> .cls-1, .cls-2, .cls-3{fill:#fff;} .cls-4{opacity:.43;} .cls-4, .cls-5, .cls-6{fill:none;} .cls-7{fill:#a5a5a5;} .cls-2{opacity:.56;} .cls-8, .cls-9{fill:#e6e6e6;} .cls-10{opacity:.12;} .cls-10, .cls-11, .cls-12, .cls-13{fill:#000001;} .cls-9{opacity:.3;} .cls-5{opacity:.08;} .cls-3{opacity:.44;} .cls-14{opacity:.58;} .cls-14, .cls-15, .cls-16{fill:#68e1fd;} .cls-6{opacity:.5;} .cls-11{opacity:.05;} .cls-17{fill:#24285b;} .cls-15{opacity:.73;} .cls-13{opacity:.1;} .cls-18{fill:#ffd200;}
 .cls-14, .cls-15, .cls-16{fill:#68E1FD;}
 .cls-10, .cls-11, .cls-12, .cls-13{fill:#000001;}
 .cls-8, .cls-9{fill:#E6E6E6;}
 .cls-1, .cls-2, .cls-3{fill:#FFFFFF;}
 .cls-18{fill:#FFD200;}
 .cls-17{fill:#24285B;}
 .cls-7{fill:#6a6464;}</style></defs><g id="bg"><ellipse class="cls-9" cx="250" cy="250" rx="240.98" ry="209.96"></ellipse><rect class="cls-8" x="342.35" y="424.16" width="120.42" height="31.7"></rect><g class="cls-4"><rect class="cls-8" x="316.02" y="393.15" width="120.42" height="31.7"></rect></g><rect class="cls-7" x="148.27" y="28.28" width="238.41" height="427.58" fill="#6a6464"></rect><rect class="cls-1" x="167.99" y="77.02" width="197.34" height="300.92"></rect><circle class="cls-2" cx="268.19" cy="416.47" r="23.33"></circle><rect class="cls-10" x="247.3" y="44.99" width="66.85" height="9.75"></rect><circle class="cls-1" cx="223.09" cy="50.93" r="10.89"></circle><path class="cls-14" d="m381.91,447.83s-16.15-4.41-19.67-19.44c0,0,25.03-5.06,25.74,20.77l-6.07-1.33Z"></path><path class="cls-15" d="m383.89,446.23s-11.29-17.84-1.35-34.52c0,0,19.03,12.09,10.57,34.56l-9.22-.04Z"></path><path class="cls-16" d="m386.8,446.24s5.96-18.84,23.99-22.41c0,0,3.38,12.23-11.67,22.46l-12.32-.05Z"></path><polygon class="cls-17" points="375.09 445.82 378.36 468.22 398.98 468.31 402.02 445.93 375.09 445.82" fill="#24285B"></polygon></g><g id="report"><rect class="cls-17" x="193.76" y="127.9" width="154.77" height="30.56" rx="5.79" ry="5.79"></rect><path class="cls-16" d="m327.67,144.4s-6.79,0-7.76,15.53c-.97,15.53,0,265.22,0,286.57s-31.54,25.23-31.54,25.23h-94.61V159.92c0-16.5,12.61-15.53,12.61-15.53h121.29Z"></path><g class="cls-6"><rect class="cls-13" x="208.98" y="167.2" width="36.45" height="9.22"></rect><rect class="cls-13" x="274.24" y="167.2" width="28.38" height="9.22"></rect><rect class="cls-13" x="208.98" y="191.58" width="48.03" height="9.22"></rect><rect class="cls-13" x="274.24" y="191.58" width="28.38" height="9.22"></rect><rect class="cls-13" x="208.98" y="215.96" width="40.09" height="9.22"></rect><rect class="cls-13" x="274.24" y="215.96" width="28.38" height="9.22"></rect><rect class="cls-13" x="208.98" y="240.34" width="48.03" height="9.22"></rect><rect class="cls-13" x="274.24" y="240.34" width="28.38" height="9.22"></rect><rect class="cls-13" x="208.98" y="264.72" width="32.08" height="9.22"></rect><rect class="cls-13" x="274.24" y="264.72" width="28.38" height="9.22"></rect><rect class="cls-13" x="208.98" y="289.09" width="52.09" height="9.22"></rect><rect class="cls-13" x="274.24" y="289.09" width="28.38" height="9.22"></rect><rect class="cls-13" x="208.98" y="313.47" width="40.09" height="9.22"></rect><rect class="cls-13" x="274.24" y="313.47" width="28.38" height="9.22"></rect><rect class="cls-13" x="208.98" y="337.85" width="24.02" height="9.22"></rect><rect class="cls-13" x="274.24" y="337.85" width="28.38" height="9.22"></rect><rect class="cls-13" x="208.98" y="362.23" width="41.91" height="9.22"></rect><rect class="cls-13" x="274.24" y="362.23" width="28.38" height="9.22"></rect><rect class="cls-13" x="208.98" y="361.71" width="32.08" height="9.22"></rect><rect class="cls-13" x="208.98" y="386.09" width="52.09" height="9.22"></rect><rect class="cls-13" x="274.24" y="386.09" width="28.38" height="9.22"></rect><rect class="cls-13" x="208.98" y="410.47" width="40.09" height="9.22"></rect><rect class="cls-13" x="274.24" y="410.47" width="28.38" height="9.22"></rect><rect class="cls-13" x="208.98" y="434.85" width="24.02" height="9.22"></rect><rect class="cls-13" x="274.24" y="434.85" width="28.38" height="9.22"></rect></g><path class="cls-16" d="m227.97,222.99h-125.17c-8.98,0-16.25,7.28-16.25,16.25v232.47h99.94s26.2.97,33.48-28.62c7.28-29.59,8.01-217.68,8.01-217.68"></path><path class="cls-3" d="m227.97,222.99h-125.17c-8.98,0-16.25,7.28-16.25,16.25v232.47h99.94s26.2.97,33.48-28.62c7.28-29.59,8.01-217.68,8.01-217.68"></path><path class="cls-16" d="m162.17,448.19H37.24s-.73,14.55,13.58,23.53h126.38s-12.61-5.09-15.04-23.53Z"></path><path class="cls-16" d="m291.28,471.72s-14.07-1.46-21.35-8.73c-7.28-7.28-9.22-14.55-9.22-39.3v-170.13c0-16.88-13.68-30.56-30.56-30.56h-2.18c-10.85,0-19.65,8.8-19.65,19.65v179.35c0,46.58-20.38,49.73-21.83,49.73s104.79,0,104.79,0Z"></path><path class="cls-13" d="m162.17,448.19H37.24s-.73,14.55,13.58,23.53h126.38s-12.61-5.09-15.04-23.53Z"></path><path class="cls-13" d="m291.28,471.72s-14.07-1.46-21.35-8.73c-7.28-7.28-9.22-14.55-9.22-39.3v-170.13c0-16.88-13.68-30.56-30.56-30.56h-2.18c-10.85,0-19.65,8.8-19.65,19.65v179.35c0,46.58-20.38,49.73-21.83,49.73s104.79,0,104.79,0Z"></path><rect class="cls-13" x="99.46" y="253.8" width="36.45" height="9.22"></rect><rect class="cls-13" x="164.71" y="253.8" width="28.38" height="9.22"></rect><rect class="cls-13" x="99.46" y="278.18" width="48.03" height="9.22"></rect><rect class="cls-13" x="164.71" y="278.18" width="28.38" height="9.22"></rect><rect class="cls-13" x="99.46" y="302.56" width="40.09" height="9.22"></rect><rect class="cls-13" x="164.71" y="302.56" width="28.38" height="9.22"></rect><rect class="cls-13" x="99.46" y="326.94" width="48.03" height="9.22"></rect><rect class="cls-13" x="164.71" y="326.94" width="28.38" height="9.22"></rect><rect class="cls-13" x="99.46" y="351.32" width="32.08" height="9.22"></rect><rect class="cls-13" x="164.71" y="351.32" width="28.38" height="9.22"></rect><rect class="cls-13" x="99.46" y="377.11" width="40.09" height="9.22"></rect><rect class="cls-13" x="164.71" y="377.11" width="28.38" height="9.22"></rect><rect class="cls-13" x="99.46" y="401.49" width="24.02" height="9.22"></rect><rect class="cls-13" x="164.71" y="401.49" width="28.38" height="9.22"></rect><rect class="cls-13" x="99.46" y="425.87" width="41.91" height="9.22"></rect><rect class="cls-13" x="164.71" y="425.87" width="28.38" height="9.22"></rect></g><g id="coin"><g class="cls-5"><path class="cls-12" d="m386.77,61.32c-2.32-.85-4.75-1.51-7.28-1.92-21.52-3.49-41.8,11.14-45.29,32.66-3.49,21.52,11.14,41.8,32.66,45.29,6.94,1.12,13.75.34,19.91-1.93V61.32Z"></path></g><circle class="cls-18" cx="380.02" cy="92.14" r="39.48"></circle><path class="cls-1" d="m381.3,72.38c1.12,0,1.46.39,1.46,1.51v2.38c4.47.63,7.04,2.86,8.93,6.75.58,1.17.34,1.8-.97,2.38l-2.38,1.07c-1.12.53-1.65.29-2.28-.87-1.31-2.52-2.91-3.74-6.21-3.74-4.13,0-6.02,1.21-6.02,3.98,0,1.8,1.65,2.91,3.35,3.25.83.19,1.99.39,3.5.53,2.72.24,4.08.44,6.46,1.26,1.21.44,2.14.92,2.86,1.55,1.36,1.26,2.57,3.69,2.57,6.8,0,5.29-3.54,8.88-9.81,9.81v2.52c0,1.12-.34,1.5-1.46,1.5h-2.67c-1.12,0-1.51-.39-1.51-1.5v-2.48c-4.85-.63-8.11-3.11-9.71-7.48-.39-1.07,0-1.8,1.12-2.23l2.38-.87c1.21-.44,1.75-.14,2.28,1.07,1.07,2.72,3.25,4.08,6.55,4.08,4.47,0,6.7-1.41,6.7-4.27,0-1.51-.68-2.43-2.09-3.01-1.41-.53-2.62-.73-4.81-.92-2.67-.24-4.18-.53-6.51-1.41-1.17-.44-2.09-.97-2.82-1.6-1.46-1.31-2.62-3.64-2.62-6.6,0-5.24,3.3-8.74,9.52-9.56v-2.38c0-1.12.39-1.51,1.51-1.51h2.67Z"></path></g><g id="calculation"><rect class="cls-11" x="328.81" y="223.03" width="57.87" height="117.84"></rect><rect class="cls-8" x="342.43" y="212.99" width="102.02" height="117.84"></rect><rect class="cls-3" x="355.57" y="228.22" width="75.74" height="26.88"></rect><rect class="cls-7" x="355.57" y="264.64" width="35.42" height="23.43"></rect><rect class="cls-7" x="395.88" y="264.64" width="35.42" height="23.43"></rect><rect class="cls-7" x="355.57" y="294.19" width="35.42" height="23.43"></rect><rect class="cls-7" x="395.88" y="294.19" width="35.42" height="23.43"></rect></g><g id="chart"><rect class="cls-11" x="148.27" y="75.85" width="34.52" height="66.09"></rect><rect class="cls-8" x="90.68" y="68.57" width="86.44" height="66.09"></rect><rect class="cls-18" x="107.33" y="98.95" width="11.35" height="19.9"></rect><rect class="cls-16" x="128.23" y="93.97" width="11.35" height="24.87"></rect><rect class="cls-17" x="149.13" y="84.38" width="11.35" height="34.47"></rect></g></svg>